{"title":"Kick Ass 2 2013 CAM READ NFO XViD-VAiN","uid":8832722,"size":1471281303,"categoryP":"video","categoryS":"movies","magnet":"?xt=urn:btih:43c56f1dcda5537c57285d0dca93bf96ebea453e&amp;dn=Kick+Ass+2+2013+CAM+READ+NFO+XViD-VAiN+&amp;tr=udp%3A%2F%2Ftracker.openbittorrent.com%3A80&amp;tr=udp%3A%2F%2Fopen.demonii.com%3A1337&amp;tr=udp%3A%2F%2Ftracker.coppersurfer.tk%3A6969&amp;tr=udp%3A%2F%2Fexodus.desync.com%3A6969","seeders":1,"leechers":0,"uploader":"R0thschild","files":2,"time":1377030638,"description":"Public Hash - Largest Bittorrent Community \nCrystal Clean files - Fast Speed! No Virus! No Fake! Enjoy!\n &lt;a href=&quot;\nhttp://www.imdb.com/title/tt1650554/&quot; rel=&quot;nofollow&quot; target=&quot;_NEW&quot;&gt;\nhttp://www.imdb.com/title/tt1650554/&lt;/a&gt;\n\nPLOT: The costumed high-school hero Kick-Ass joins with a group of normal citizens who have been inspired to fight crime in costume. Meanwhile, the Red Mist plots an act of revenge that will affect everyone Kick-Ass knows\n\nT E C H N i C A L . i N F O\n\nFormat: AVI\nFormat/Info: Audio Video Interleave\nFile size: 1.37 GiB\nDuration: 1h 36mn\nOverall bit rate: 2 031 Kbps\nWriting application: VirtualDubMod 1.5.10.2 (build 2540/release)\nWriting library: VirtualDubMod build 2540/release\n\nVideo\nID: 0\nFormat: MPEG-4 Visual\nFormat profile: Advanced Simple@L5\nFormat settings, BVOP: 2\nFormat settings, QPel: No\nFormat settings, GMC: No warppoints\nFormat settings, Matrix: Default (MPEG)\nMuxing mode: Packed bitstream\nCodec ID: XVID\nCodec ID/Hint: XviD\nDuration: 1h 36mn\nBit rate: 1 894 Kbps\nWidth: 720 pixels\nHeight: 368 pixels\nDisplay aspect ratio: 1.957\nFrame rate: 25.000 fps\nColor space: YUV\nChroma subsampling: 4:2:0\nBit depth: 8 bits\nScan type: Progressive\nCompression mode: Lossy\nBits/(Pixel*Frame): 0.286\nStream size: 1.28 GiB (93%)\nWriting library: XviD 64\n\nAudio\nID: 1\nFormat: MPEG Audio\nFormat version: Version 1\nFormat profile: Layer 3\nMode: Joint stereo\nMode extension: MS Stereo\nCodec ID: 55\nCodec ID/Hint: MP3\nDuration: 1h 36mn\nBit rate mode: Constant\nBit rate: 128 Kbps\nChannel(s): 2 channels\nSampling rate: 44.1 KHz\nCompression mode: Lossy\nStream size: 88.2 MiB (6%)\nAlignment: Aligned on interleaves\nInterleave, duration: 40 ms (1.00 video frame)\nInterleave, preload duration: 522 ms","torrent":{"xt":"urn:btih:43c56f1dcda5537c57285d0dca93bf96ebea453e","amp;dn":"Kick+Ass+2+2013+CAM+READ+NFO+XViD-VAiN+","amp;tr":["udp%3A%2F%2Ftracker.openbittorrent.com%3A80","udp%3A%2F%2Fopen.demonii.com%3A1337","udp%3A%2F%2Ftracker.coppersurfer.tk%3A6969","udp%3A%2F%2Fexodus.desync.com%3A6969"],"infoHash":"43c56f1dcda5537c57285d0dca93bf96ebea453e","infoHashBuffer":{"type":"Buffer","data":[67,197,111,29,205,165,83,124,87,40,93,13,202,147,191,150,235,234,69,62]},"announce":[],"urlList":[]}}